<svg xmlns="http://www.w3.org/2000/svg" xmlns:xlink="http://www.w3.org/1999/xlink" viewBox="0 0 1082.83 822.05"><defs><style>.cls-1{isolation:isolate;}.cls-2{opacity:0.27;mix-blend-mode:multiply;}.cls-3{fill:url(#linear-gradient);}.cls-4{fill:#afb9bc;}.cls-5{fill:url(#linear-gradient-2);}.cls-6{fill:#1d2220;}.cls-7{fill:#6f849b;}.cls-8{fill:#2b312f;}.cls-9{fill:url(#linear-gradient-3);}.cls-10{fill:#fff;}.cls-11{fill:#293789;}.cls-12{fill:#303835;}.cls-13{fill:#1f261d;}.cls-14{fill:#222624;}.cls-15{fill:url(#linear-gradient-4);}.cls-16{fill:url(#linear-gradient-5);}.cls-17{fill:url(#linear-gradient-6);}.cls-18{fill:url(#linear-gradient-7);}.cls-19{fill:url(#linear-gradient-8);}.cls-20{fill:url(#linear-gradient-9);}.cls-21{fill:#7f8080;}.cls-22{fill:#8a6327;}.cls-23{fill:#eaab28;}.cls-24{fill:url(#linear-gradient-10);}.cls-25{fill:url(#linear-gradient-11);}.cls-26{fill:url(#linear-gradient-12);}</style><linearGradient id="linear-gradient" x1="982.13" y1="693.97" x2="257" y2="534.31" gradientTransform="matrix(1, -0.02, -0.01, 0.98, 8.82, 17.45)" gradientUnits="userSpaceOnUse"><stop offset="0.12" stop-color="#484058"/><stop offset="0.83" stop-color="#303835"/></linearGradient><linearGradient id="linear-gradient-2" x1="980.92" y1="610.88" x2="255.79" y2="451.22" xlink:href="#linear-gradient"/><linearGradient id="linear-gradient-3" x1="220.42" y1="-16055.2" x2="739.56" y2="-15507.74" gradientTransform="matrix(1, 0, 0, -1, 0, -15559.84)" gradientUnits="userSpaceOnUse"><stop offset="0.06" stop-color="#946caf"/><stop offset="0.81" stop-color="#5779bc"/></linearGradient><linearGradient id="linear-gradient-4" x1="677.17" y1="538.97" x2="557.12" y2="606.25" gradientTransform="matrix(1.01, -0.06, 0.16, 0.86, -80.11, 96.38)" gradientUnits="userSpaceOnUse"><stop offset="0.15" stop-color="#584e6c"/><stop offset="0.83" stop-color="#414c49"/></linearGradient><linearGradient id="linear-gradient-5" x1="621.41" y1="267.89" x2="501.43" y2="271.13" gradientTransform="matrix(1, 0.29, 0, 1, 0, -165.21)" gradientUnits="userSpaceOnUse"><stop offset="0.06" stop-color="#b44298"/><stop offset="0.97" stop-color="#f6f8fc" stop-opacity="0"/></linearGradient><linearGradient id="linear-gradient-6" x1="319.99" y1="600.08" x2="231.28" y2="602.48" xlink:href="#linear-gradient-5"/><linearGradient id="linear-gradient-7" x1="416.55" y1="526.37" x2="327.85" y2="528.77" xlink:href="#linear-gradient-5"/><linearGradient id="linear-gradient-8" x1="703.36" y1="165.9" x2="523.18" y2="170.77" xlink:href="#linear-gradient-5"/><linearGradient id="linear-gradient-9" x1="755.13" y1="-15541.45" x2="580.47" y2="-15978.11" gradientTransform="matrix(1, 0, 0, -1, 0, -15559.84)" gradientUnits="userSpaceOnUse"><stop offset="0.06" stop-color="#9e97ca"/><stop offset="0.81" stop-color="#f6f8fc"/></linearGradient><linearGradient id="linear-gradient-10" x1="291.09" y1="-16180.11" x2="438.88" y2="-15974.1" gradientTransform="matrix(1, 0, 0, -1, 0, -15559.84)" gradientUnits="userSpaceOnUse"><stop offset="0.05" stop-color="#fdd600"/><stop offset="0.83" stop-color="#cb912b"/></linearGradient><linearGradient id="linear-gradient-11" x1="367.68" y1="443.35" x2="337.15" y2="460.46" gradientTransform="matrix(0.85, -0.55, 0, 1, 69.83, 260.9)" xlink:href="#linear-gradient"/><linearGradient id="linear-gradient-12" x1="372.15" y1="-16008.77" x2="391.61" y2="-16008.77" gradientTransform="matrix(1, 0, 0, -1, 0, -15559.84)" xlink:href="#linear-gradient"/></defs><title>login</title><g class="cls-1"><g id="Layer_1" data-name="Layer 1"><g class="cls-2"><polygon class="cls-3" points="516.27 792.73 224 642.67 602.39 397.04 882.35 538.64 516.27 792.73"/></g><g class="cls-1"><path class="cls-4" d="M514.84,722.4,231.39,578.8A18.21,18.21,0,0,1,224,561.61h0L516.28,711.67Z"/><polygon class="cls-5" points="516.27 711.66 224 561.61 602.39 315.97 882.35 457.57 516.27 711.66"/><path class="cls-4" d="M882.35,457.57h0a23.72,23.72,0,0,1-11,16.76L514.84,722.4l1.44-10.73Z"/></g><g class="cls-1"><path class="cls-6" d="M223.11,561.93h0a16.75,16.75,0,0,1-10.3-14.72L200.48,275.8l9.82,4.1Z"/><path class="cls-7" d="M210.3,279.9l-9.82-4.1L577.11,32.55a20.22,20.22,0,0,1,18.76-1.67h0Z"/><polygon class="cls-8" points="595.87 30.88 608.68 312.89 223.11 561.93 210.3 279.9 595.87 30.88"/><polygon class="cls-9" points="582.94 54.39 593.02 308.04 235.6 537.2 224.18 285.77 582.94 54.39"/><path class="cls-10" d="M475.2,250.42l-.45-11.25a4.29,4.29,0,0,0-6.62-3.43L362.49,303.87a4.28,4.28,0,0,0-2,3.8l.51,11.21a4.3,4.3,0,0,0,6.62,3.42l105.57-68.1A4.29,4.29,0,0,0,475.2,250.42Z"/><path class="cls-10" d="M475.2,289.34l-.45-11.25a4.3,4.3,0,0,0-6.62-3.44L362.49,342.78a4.3,4.3,0,0,0-2,3.8l.51,11.21a4.3,4.3,0,0,0,6.62,3.42l105.57-68.09A4.3,4.3,0,0,0,475.2,289.34Z"/><path class="cls-11" d="M435,331.67,405.7,350.59a4.79,4.79,0,0,0-2.2,4V365a4.79,4.79,0,0,0,7.39,4l29.33-18.91a4.79,4.79,0,0,0,2.2-4V335.7A4.8,4.8,0,0,0,435,331.67Z"/></g><path class="cls-10" d="M414.66,235.8c3.29-4.36,5.47-9.53,5.47-13.77,0-6.72-5.47-8.57-12.19-4.13s-12.19,13.53-12.19,20.25c0,4.23,2.18,6.53,5.47,6.54-7.45,7.67-12.78,18.34-12.78,26.73l3.25-2.15c0-9,7.29-21.07,16.25-27s16.25-3.46,16.25,5.5l3.25-2.15C427.44,237.25,422.11,233.63,414.66,235.8ZM407.94,239c-4.93,3.25-8.94,1.9-8.94-3s4-11.59,8.94-14.85,8.94-1.9,8.94,3S412.87,235.77,407.94,239Z"/><circle class="cls-12" cx="378.64" cy="305.52" r="3.24"/><circle class="cls-12" cx="390.53" cy="297.95" r="3.24"/><circle class="cls-12" cx="402.42" cy="290.39" r="3.24"/><circle class="cls-12" cx="414.31" cy="282.82" r="3.24"/><circle class="cls-12" cx="426.2" cy="275.26" r="3.24"/><circle class="cls-12" cx="378.64" cy="342.63" r="3.24"/><circle class="cls-12" cx="390.53" cy="335.07" r="3.24"/><circle class="cls-12" cx="402.42" cy="327.5" r="3.24"/><circle class="cls-12" cx="414.31" cy="319.93" r="3.24"/><circle class="cls-12" cx="426.2" cy="312.37" r="3.24"/><path class="cls-13" d="M749.4,412.17,403.5,630.52c-3,1.94-8.56,1.37-12.39-1.29L298.89,583.4c-3.83-2.66-4.5-6.38-1.49-8.32L638.23,357.17c3-1.95,8.56-1.37,12.4,1.28l97.28,45.4C751.74,406.51,752.41,410.23,749.4,412.17Z"/><path class="cls-14" d="M700.69,554.16,644,593c-3,2.06-7.59,2.06-11.13,0l-54-31.44c-5.06-2.95-5.8-8.67-1.51-11.6L634,511.1c3-2.05,7.58-2.05,11.12,0l54,31.45C704.24,545.5,705,551.23,700.69,554.16Z"/><path class="cls-15" d="M697.91,554.41l-54.17,37.24c-2.87,2-7.25,2-10.64,0l-51.68-30.44c-4.84-2.85-5.56-8.36-1.46-11.18l54.17-37.24c2.86-2,7.24-2,10.63,0l51.69,30.44C701.28,546.08,702,551.59,697.91,554.41Z"/><polygon class="cls-16" points="590.7 387.21 506.39 363.12 506.39 135.51 590.7 159.6 590.7 387.21"/><polygon class="cls-17" points="300.07 573.75 235.6 538.73 231.27 450.73 298.6 486.2 300.07 573.75"/><polygon class="cls-18" points="396.64 527.63 332.16 492.61 327.84 404.61 395.16 440.08 396.64 527.63"/><polygon class="cls-19" points="710.67 319.11 580.97 281.99 580.97 54.39 710.67 91.5 710.67 319.11"/><polygon class="cls-20" points="713.92 88.76 713.92 318.22 590.7 388.13 590.7 159.1 713.92 88.76"/><path class="cls-21" d="M633.52,185.2c2.56-3.39,4.25-7.42,4.25-10.71,0-5.23-4.25-6.68-9.48-3.22S618.8,181.8,618.8,187c0,3.3,1.7,5.08,4.26,5.09-5.8,6-9.95,14.28-9.95,20.8l2.53-1.67c0-7,5.67-16.4,12.65-21s12.64-2.69,12.64,4.29l2.53-1.67C643.46,186.33,639.31,183.51,633.52,185.2Zm-5.23,2.51c-3.84,2.54-7,1.48-7-2.35s3.12-9,7-11.56,7-1.48,7,2.36S632.12,185.18,628.29,187.71Z"/><path class="cls-21" d="M657.88,170.41a2.17,2.17,0,0,1-1.08-4l37.47-21.62a2.16,2.16,0,0,1,2.16,3.75L659,170.12A2.21,2.21,0,0,1,657.88,170.41Z"/><path class="cls-21" d="M617.53,238.14a2.16,2.16,0,0,1-1.14-4l80.18-49.36a2.17,2.17,0,0,1,2.27,3.69l-80.18,49.35A2.16,2.16,0,0,1,617.53,238.14Z"/><path class="cls-21" d="M617.53,262.64a2.16,2.16,0,0,1-1.14-4l80.18-49.36a2.17,2.17,0,0,1,2.27,3.69l-80.18,49.35A2.16,2.16,0,0,1,617.53,262.64Z"/><path class="cls-21" d="M617.53,287.15a2.17,2.17,0,0,1-1.14-4l80.18-49.35a2.16,2.16,0,0,1,2.27,3.68l-80.18,49.35A2.17,2.17,0,0,1,617.53,287.15Z"/><path class="cls-21" d="M617.53,311.65a2.17,2.17,0,0,1-1.14-4l80.18-49.35a2.16,2.16,0,0,1,2.27,3.68l-80.18,49.36A2.25,2.25,0,0,1,617.53,311.65Z"/><path class="cls-21" d="M617.53,336.15a2.16,2.16,0,0,1-1.14-4l80.18-49.36a2.16,2.16,0,0,1,2.27,3.68l-80.18,49.36A2.25,2.25,0,0,1,617.53,336.15Z"/><g class="cls-1"><polygon class="cls-22" points="326.16 584.44 300.07 573.75 298.6 486.2 324.69 496.89 326.16 584.44"/><polygon class="cls-23" points="324.69 496.89 298.6 486.2 381.74 433.78 407.83 444.47 324.69 496.89"/><polygon class="cls-24" points="407.83 444.47 409.3 532.03 326.16 584.44 324.69 496.89 407.83 444.47"/></g><path class="cls-25" d="M379.42,502.28c0-5.39-3.73-7.34-8.32-4.35s-8.31,9.77-8.31,15.16c0,4.2,2.27,6.3,5.45,5.6l-2.81,17.51,11.34-7.37L374,515C377.14,511.54,379.42,506.48,379.42,502.28Z"/><path class="cls-10" d="M319.19,487.91a5.41,5.41,0,0,1-5.41-5.4v-35.3c0-17,15.6-40.21,35.5-52.72,12.56-7.91,24.4-9.88,32.47-5.42,5.66,3.13,8.78,9.05,8.78,16.67v18.8a5.41,5.41,0,0,1-10.81,0v-18.8c0-3.61-1.08-6-3.2-7.21-3.28-1.82-10.88-1.57-21.48,5.11C338.53,414,324.59,434,324.59,447.21v35.3A5.4,5.4,0,0,1,319.19,487.91Z"/><ellipse class="cls-26" cx="381.88" cy="448.92" rx="9.73" ry="5.4"/></g></g></svg>